<?xml version="1.0" encoding="utf-8"?>
<!-- Generator: Adobe Illustrator 21.0.0, SVG Export Plug-In . SVG Version: 6.00 Build 0)  -->
<svg version="1.1" id="Layer_1" xmlns="http://www.w3.org/2000/svg" xmlns:xlink="http://www.w3.org/1999/xlink" x="0px" y="0px"
	 viewBox="0 0 511.9 511.9" style="enable-background:new 0 0 511.9 511.9;" xml:space="preserve">
<style type="text/css">
	.st0{fill:#E6E9ED;}
	.st1{fill:#5D9CEC;}
	.st2{fill:#CCD1D9;}
	.st3{fill:#4A89DC;}
	.st4{fill:#656D78;}
</style>
<path class="st0" d="M401.3,495c0,4.4-3.6,8-8,8H90.4c-4.4,0-8-3.6-8-8V64.6c0-4.4,3.6-8,8-8h302.9c4.4,0,8,3.6,8,8V495z"/>
<path class="st1" d="M393.3,56.7H90.4c-4.4,0-8,3.6-8,8v15.9v239.1h318.8V64.6C401.3,60.2,397.7,56.7,393.3,56.7L393.3,56.7z"/>
<path class="st2" d="M425.2,471.2c0,4.4-3.6,8-8,8H114.4c-4.4,0-8-3.6-8-8V40.8c0-4.4,3.6-8,8-8h302.9c4.4,0,8,3.6,8,8V471.2z"/>
<path class="st3" d="M417.2,32.9H114.4c-4.4,0-8,3.6-8,8v15.9v239.1h318.8V40.8C425.2,36.5,421.6,32.9,417.2,32.9L417.2,32.9z"/>
<path class="st0" d="M449.1,447.2c0,4.4-3.6,8-8,8H138.3c-4.4,0-8-3.6-8-8V16.9c0-4.4,3.6-8,8-8h302.9c4.4,0,8,3.6,8,8V447.2z"/>
<path class="st1" d="M441.1,8.9H138.3c-4.4,0-8,3.6-8,8v15.9V272h318.8V16.9C449.1,12.5,445.5,8.9,441.1,8.9L441.1,8.9z"/>
<g>
	<path class="st2" d="M409.3,327.7h-239c-4.4,0-8-3.6-8-8c0-4.4,3.6-8,8-8h239c4.4,0,8,3.6,8,8C417.2,324.1,413.7,327.7,409.3,327.7
		z"/>
	<path class="st2" d="M409.3,351.6h-239c-4.4,0-8-3.6-8-8c0-4.4,3.6-8,8-8h239c4.4,0,8,3.6,8,8C417.2,348,413.7,351.6,409.3,351.6z"
		/>
	<path class="st2" d="M369.4,375.5H210.1c-4.4,0-8-3.6-8-8s3.6-8,8-8h159.4c4.4,0,8,3.6,8,8S373.9,375.5,369.4,375.5z"/>
	<path class="st2" d="M258.1,415.3c-4.4,0-8-3.6-8-8c0-4.4,3.5-8,7.9-8h0.1c4.4,0,8,3.6,8,8C266.1,411.8,262.5,415.3,258.1,415.3
		L258.1,415.3z"/>
	<path class="st2" d="M290,415.3c-4.4,0-8-3.6-8-8c0-4.4,3.5-8,7.9-8h0.1c4.4,0,8,3.6,8,8C298,411.8,294.4,415.3,290,415.3z"/>
	<path class="st2" d="M321.9,415.3c-4.4,0-8-3.6-8-8c0-4.4,3.5-8,7.9-8h0.1c4.4,0,8,3.6,8,8C329.8,411.8,326.3,415.3,321.9,415.3z"
		/>
</g>
<path d="M289.7,120.4c-4.4,0-8-3.6-8-8v-8c0-4.4,3.6-8,8-8c4.4,0,8,3.6,8,8v8C297.7,116.9,294.1,120.4,289.7,120.4z"/>
<path class="st4" d="M289.7,112.5c-4.4,0-8-3.6-8-8c0-13.2,10.7-23.9,23.9-23.9c4.4,0,8,3.6,8,8c0,4.4-3.6,8-8,8c-4.4,0-8,3.6-8,8
	C297.7,108.9,294.1,112.5,289.7,112.5z"/>
<path class="st4" d="M353.5,96.5c-4.4,0-8-3.6-8-8c0-4.4,3.6-8,8-8c4.4,0,8-3.6,8-8s-3.6-8-8-8c-4.4,0-8-3.6-8-8s3.6-8,8-8
	c13.2,0,23.9,10.7,23.9,23.9C377.4,85.8,366.6,96.5,353.5,96.5z"/>
<path class="st4" d="M353.5,64.7H226c-4.4,0-8-3.6-8-8s3.6-8,8-8h127.5c4.4,0,8,3.6,8,8S357.9,64.7,353.5,64.7z"/>
<path class="st4" d="M353.5,96.5h-47.8c-4.4,0-8-3.6-8-8c0-4.4,3.6-8,8-8h47.8c4.4,0,8,3.6,8,8C361.4,93,357.9,96.5,353.5,96.5z"/>
<path class="st4" d="M289.7,120.4c-4.4,0-8-3.6-8-8v-8c0-4.4,3.6-8,8-8c4.4,0,8,3.6,8,8v8C297.7,116.9,294.1,120.4,289.7,120.4z"/>
<path class="st0" d="M345.4,112.5c30.8,0,55.8,24.9,55.8,55.8c0,30.7-25,55.8-55.8,55.8c-22.2,0-41.4-13.1-50.4-31.9h-10.8
	c-9,18.8-28.1,31.9-50.4,31.9c-30.8,0-55.8-25-55.8-55.8c0-30.8,24.9-55.8,55.8-55.8h55.8H345.4z"/>
<path class="st4" d="M233.9,192.2c-4.4,0-8-3.6-8-8v-31.9c0-4.4,3.6-8,8-8s8,3.6,8,8v31.9C241.9,188.6,238.3,192.2,233.9,192.2z"/>
<path class="st4" d="M249.9,176.2H218c-4.4,0-8-3.6-8-8s3.6-8,8-8h31.9c4.4,0,8,3.6,8,8S254.3,176.2,249.9,176.2z"/>
<path class="st4" d="M329.9,176.2c-4.4,0-8-3.6-8-8s3.5-8,7.9-8h0.1c4.4,0,8,3.6,8,8S334.3,176.2,329.9,176.2z"/>
<path class="st4" d="M345.8,160.3c-4.4,0-8-3.6-8-8s3.5-8,7.9-8h0.1c4.4,0,8,3.6,8,8S350.2,160.3,345.8,160.3z"/>
<path class="st4" d="M345.8,192.2c-4.4,0-8-3.6-8-8s3.5-8,7.9-8h0.1c4.4,0,8,3.6,8,8S350.2,192.2,345.8,192.2z"/>
<path class="st4" d="M361.8,176.2c-4.4,0-8-3.6-8-8s3.5-8,7.9-8h0.1c4.4,0,8,3.6,8,8S366.2,176.2,361.8,176.2z"/>
</svg>
