<?xml version="1.0" encoding="utf-8"?>
<!-- Generator: Adobe Illustrator 21.0.0, SVG Export Plug-In . SVG Version: 6.00 Build 0)  -->
<svg version="1.1" id="Layer_1" xmlns="http://www.w3.org/2000/svg" xmlns:xlink="http://www.w3.org/1999/xlink" x="0px" y="0px"
	 viewBox="0 0 511.9 511.9" style="enable-background:new 0 0 511.9 511.9;" xml:space="preserve">
<style type="text/css">
	.st0{fill:#FF1481;}
	.st1{fill:#E6E9ED;}
	.st2{fill:#F5F7FA;}
</style>
<path class="st0" d="M448,213.3h-85.1c-11.8,0-21.3,9.5-21.3,21.3v39.9c1.4-10.5,10.3-18.5,21.1-18.5h42.6
	c11.8,0,21.3,9.5,21.3,21.3v106.6c0,11.8-9.6,21.3-21.3,21.3h-42.6c-10.8,0-19.8-8.1-21.1-18.5v39.8c0,11.8,9.6,21.3,21.3,21.3H448
	c11.8,0,21.3-9.6,21.3-21.3V234.6C469.3,222.8,459.7,213.3,448,213.3z"/>
<path class="st0" d="M362.5,469.2c0,23.6-19.1,42.6-42.6,42.6H85.3c-23.6,0-42.7-19.1-42.7-42.6V149.3h319.9V469.2z"/>
<g>
	<path class="st1" d="M296.2,110.6L296.2,110.6c0,0-2.5-3.2-3.6-7.4c-1.1-4.3-0.3-7.5,2.8-10.6c8.7-8.7,11.5-20,8.1-31.8
		c-2.3-7.9-6.8-13.5-7.4-14.2c0,0,0,0,0,0s0,0,0,0v0c-1.9-2.4-4.9-3.9-8.2-3.9c-5.9,0-10.7,4.8-10.7,10.7c0,2.6,0.9,4.9,2.4,6.8l0,0
		c0,0,2.5,3.2,3.5,7.2c1.1,4.1,0.2,7.2-2.8,10.3c-8.6,8.7-11.5,20-8.1,32c2.3,8.1,6.8,13.8,7.3,14.5v0c2,2.4,4.9,4,8.3,4
		c5.9,0,10.7-4.8,10.7-10.7C298.6,114.8,297.7,112.4,296.2,110.6L296.2,110.6z M279.7,60.1L279.7,60.1L279.7,60.1L279.7,60.1z"/>
	<path class="st1" d="M221.1,25.3c-3.2-11.9-9.3-20.2-10-21.1h0c-2-2.6-5-4.2-8.5-4.2c-5.9,0-10.7,4.8-10.7,10.7
		c0,2.4,0.8,4.6,2.2,6.4l0,0c0,0.1,4.5,6.1,6.5,14.3c2.5,9.8,0.5,18.2-6,25.5c-11.4,12.9-15,28.7-10.5,45.7
		c3.2,11.9,9.3,20.2,10,21.1l0,0c1.9,2.6,5,4.2,8.5,4.2c5.9,0,10.7-4.8,10.7-10.7c0-2.4-0.8-4.6-2.2-6.4l0,0c0-0.1-4.5-6.1-6.5-14.3
		c-2.5-9.8-0.5-18.2,6-25.5C222,58.2,225.6,42.4,221.1,25.3z"/>
	<path class="st1" d="M132.9,60.8c-2.3-7.9-6.8-13.5-7.4-14.2c0,0,0,0,0,0c0,0,0,0,0,0l0,0c-2-2.4-4.9-3.9-8.2-3.9
		c-5.9,0-10.7,4.8-10.7,10.7c0,2.6,0.9,4.9,2.4,6.8l0,0c0,0,2.5,3.2,3.5,7.2c1.1,4.1,0.2,7.2-2.8,10.3c-8.6,8.7-11.5,20-8.1,32
		c2.3,8.1,6.8,13.8,7.3,14.5v0c2,2.4,4.9,4,8.3,4c5.9,0,10.7-4.8,10.7-10.7c0-2.5-0.9-4.9-2.4-6.7h0l0,0.1c0,0-2.5-3.3-3.6-7.5
		c-1.1-4.3-0.3-7.5,2.8-10.6C133.5,83.9,136.3,72.6,132.9,60.8z M109,60.1C109,60.1,109,60.1,109,60.1L109,60.1L109,60.1z"/>
	<polygon class="st1" points="95.9,394.6 156.9,293 217.8,394.6 	"/>
</g>
<polygon class="st2" points="146.7,394.6 228,252.4 309.2,394.6 "/>
</svg>
