<?xml version="1.0" encoding="utf-8"?>
<!-- Generator: Adobe Illustrator 21.0.0, SVG Export Plug-In . SVG Version: 6.00 Build 0)  -->
<svg version="1.1" id="Layer_1" xmlns="http://www.w3.org/2000/svg" xmlns:xlink="http://www.w3.org/1999/xlink" x="0px" y="0px"
	 viewBox="0 0 511.9 511.9" style="enable-background:new 0 0 511.9 511.9;" xml:space="preserve">
<style type="text/css">
	.st0{fill:#112E41;}
	.st1{fill:#FF1481;}
	.st2{fill:#8038C5;}
	.st3{fill:#FFFFFF;}
</style>
<path class="st0" d="M500,242c0,10.7,0,21.4,0,32.1c-0.2,0.2-0.3,0.5-0.5,0.7c0.2,0,0.3,0,0.5,0c0,1.9,0,3.8,0,5.7
	c-1.3,0.9-1.3,0.9-1.4,2.2c-1.5,16.4-5,32.4-10.1,48.1c-12.1,37.5-32.1,70.2-60,98c-19.3-19.3-38.6-38.6-57.9-57.9
	c-0.3-0.3-0.6-0.7-0.2-1.2c33.8,1.9,59.8-23.2,62.5-53.5c2.8-30.6-18.8-58.4-48.9-63.3c-15.8-2.5-30.6,0.7-43.6,10
	c-17.6,12.7-25.7,30.4-25,52.2c-19.9-19.7-39.4-39.1-58.9-58.5l-0.2-0.1c0.4-0.3,0.8-0.5,1.1-0.8c19.2-19.1,38.3-38.3,57.5-57.4
	c0.4-0.4,1.2-0.8,0.8-1.7c-32.4,3.2-62.6-21.1-64.8-55.2c-2-30.1,21.4-58.5,51.6-61.9c16.4-1.8,31.2,2.2,44,12.5
	c16.5,13.3,23.3,31.1,21.8,52.4c0.8-0.3,1.1-0.4,1.3-0.6c19.7-19.6,39.3-39.3,59-58.9c0.4,0.3,0.8,0.6,1.1,0.9
	c27.1,26.9,46.1,58.7,58.2,94.7c5.5,16.5,9.1,33.5,10.9,50.9c0.1,0.7-0.7,2.5,1.4,2.1c0,2.4,0,4.8,0,7.1c-0.4-0.2-0.6,0-0.6,0.4
	C499.3,241.5,499.5,241.9,500,242z"/>
<path class="st1" d="M256.3,256.6l0.2,0.1c-1,1.1-1.9,2.1-2.9,3.1c-18.1,18-36.1,36.1-54.2,54.1c-0.8,0.8-2,1.5-2.2,2.9
	c38-2.7,63.3,25.8,64.8,55.4c1.7,32.5-22.1,59.1-53.9,62.1c-31.9,3.1-67.7-24.2-63.8-65.4c-20.1,20-39.9,39.8-59.7,59.5
	c-0.5-0.4-1-0.7-1.4-1.1c-25.5-25.9-44.2-56-56.3-90.2c-6.1-17.5-10.2-35.4-12.2-53.8c-0.1-0.8,0.7-2.5-1.4-2.1c0-2.4,0-4.8,0-7.1
	c0.2,0,0.3,0,0.5,0c-0.2-0.2-0.3-0.4-0.5-0.7c0-11.6,0-23.3,0-34.9c0.2-0.2,0.3-0.4,0.5-0.7c-0.2,0-0.3,0-0.5,0c0-2.1,0-4.3,0-6.4
	c2.1,0.3,1.3-1.4,1.4-2.2c0.8-7.6,2-15.2,3.7-22.7C28.5,159.7,50.3,119.3,84,85.3c1.6-0.1,2.3,1.2,3.2,2.1
	c17.9,17.9,35.8,35.7,53.6,53.6c0.7,0.7,1.8,1.2,1.7,2.5c-42.3-0.9-64.1,33.9-62.7,61.1c1.8,32.9,27.1,56.7,59.4,56.9
	c27,0.1,59.9-22,58.5-62.8c0.2,0,0.5,0,0.7,0.1C217.6,218,236.9,237.3,256.3,256.6z"/>
<path class="st2" d="M256.3,256.6c-19.3-19.3-38.6-38.6-58-57.9c-0.1-0.1-0.4-0.1-0.7-0.1c1.4,40.8-31.4,62.9-58.5,62.8
	c-32.3-0.1-57.6-23.9-59.4-56.9c-1.5-27.2,20.4-62,62.7-61.1c0.1-1.3-1-1.8-1.7-2.5C122.8,123,105,105.2,87.1,87.3
	c-0.9-0.9-1.6-2.1-3.2-2.1c4.6-4.8,9.5-9.3,14.5-13.6c36.7-31.2,78.9-50.1,126.7-56.4c2.5-0.3,5.7,0.8,7.7-2c15.9,0,31.8,0,47.7,0
	c0,1.7,1.5,1.3,2.4,1.4c8.5,0.8,16.9,2.2,25.2,4c34.9,7.6,66.7,22.1,95.2,43.8c9,6.8,17.8,13.9,25.2,22.4
	c-19.6,19.6-39.3,39.3-59,58.9c-0.2,0.2-0.6,0.3-1.3,0.6c1.6-21.3-5.2-39-21.8-52.4c-12.8-10.3-27.6-14.3-44-12.5
	c-30.2,3.3-53.6,31.7-51.6,61.9c2.2,34.1,32.4,58.4,64.8,55.2c0.4,0.9-0.4,1.3-0.8,1.7c-19.1,19.1-38.3,38.3-57.5,57.4
	C257.1,256.1,256.6,256.3,256.3,256.6z"/>
<path class="st3" d="M84.5,428.5c19.8-19.7,39.6-39.4,59.7-59.5c-4,41.2,31.8,68.5,63.8,65.4c31.8-3.1,55.6-29.6,53.9-62.1
	c-1.5-29.6-26.7-58.1-64.8-55.4c0.2-1.5,1.4-2.1,2.2-2.9c18-18,36.1-36.1,54.2-54.1c1-1,1.9-2.1,2.9-3.1
	c19.5,19.4,39.1,38.8,58.9,58.5c-0.7-21.8,7.4-39.5,25-52.2c13-9.3,27.8-12.6,43.6-10c30.2,4.8,51.7,32.7,48.9,63.3
	c-2.8,30.3-28.7,55.4-62.5,53.5c-0.4,0.5-0.2,0.8,0.2,1.2c19.3,19.3,38.6,38.6,58,57.9c-8.5,8.7-17.6,16.6-27.4,23.7
	c-35.4,25.8-74.7,41.4-118.3,46.1c-0.8,0.1-2.4-0.6-2.3,1.3c-2.6,0-5.2,0-7.8,0c0-0.2,0-0.3,0-0.5c-0.2,0.2-0.4,0.3-0.7,0.5
	c-11.2,0-22.3,0-33.5,0c-0.2-0.2-0.4-0.3-0.7-0.5c0,0.2,0,0.3,0,0.5c-2.1,0-4.3,0-6.4,0c0.5-0.4,0.5-0.8,0-1
	c-0.8-0.3-1.6-0.4-2.4-0.5c-10.4-1.4-20.8-3-31-5.6c-26.2-6.6-50.8-17.2-73.5-31.9C109.9,451.7,96.4,441,84.5,428.5z"/>
<path d="M500,242c-0.5-0.1-0.7-0.6-0.6-1c0-0.4,0.2-0.6,0.6-0.4C500,241.1,500,241.6,500,242z"/>
<path d="M13.3,237.8c0.2,0,0.3,0,0.5,0c-0.2,0.2-0.3,0.4-0.5,0.7C13.3,238.2,13.3,238,13.3,237.8z"/>
<path d="M13.3,273.4c0.2,0.2,0.3,0.4,0.5,0.7c-0.2,0-0.3,0-0.5,0C13.3,273.9,13.3,273.6,13.3,273.4z"/>
<path d="M500,274.8c-0.2,0-0.3,0-0.5,0c0.2-0.2,0.3-0.5,0.5-0.7C500,274.4,500,274.6,500,274.8z"/>
</svg>
