<?xml version="1.0" encoding="utf-8"?>
<!-- Generator: Adobe Illustrator 21.0.0, SVG Export Plug-In . SVG Version: 6.00 Build 0)  -->
<svg version="1.1" id="Layer_1" xmlns="http://www.w3.org/2000/svg" xmlns:xlink="http://www.w3.org/1999/xlink" x="0px" y="0px"
	 viewBox="0 0 511.9 511.9" style="enable-background:new 0 0 511.9 511.9;" xml:space="preserve">
<style type="text/css">
	.st0{fill:#937DE2;}
	.st1{fill:#8038C5;}
	.st2{fill:#FFEEE3;}
	.st3{fill:#41FFED;}
	.st4{fill:#6FC7FF;}
	.st5{fill:#FFC3AE;}
</style>
<g>
	<path d="M237.8,500c0-0.2,0-0.3,0-0.5c0.2,0.2,0.4,0.3,0.7,0.5C238.2,500,238,500,237.8,500z"/>
	<path d="M272,500c0.2-0.2,0.4-0.3,0.7-0.5c0,0.2,0,0.3,0,0.5C272.5,500,272.2,500,272,500z"/>
</g>
<path class="st0" d="M460.1,279.9c0,124.1-100.6,224.7-224.7,224.7c-30.4,0-59.5-6.1-85.9-17C77.1,457.6,23.9,391,12.9,310.8
	c-1.4-10.1-2.1-20.4-2.1-30.9c0-124.1,100.6-224.7,224.7-224.7C359.5,55.3,460.1,155.9,460.1,279.9z"/>
<path class="st1" d="M235.4,55.3c-11.9,0-23.5,0.9-34.9,2.7C308,74.8,390.3,167.8,390.3,280s-82.2,205.2-189.7,221.9
	c11.4,1.8,23,2.7,34.9,2.7c124.1,0,224.7-100.6,224.7-224.7C460.1,155.9,359.5,55.3,235.4,55.3z"/>
<path class="st2" d="M488.1,263.3l-128.3,84.9c-9.1,6.1-20.2,8.5-31,6.7c-10.8-1.7-21.9,0.6-31.1,6.7L280.5,373l-96.1-141.7
	L208,129.5c1.8-7.9,2.7-16,2.7-24c0-20.7-6.1-41.2-17.7-58.7c-2.9-4.3-4.2-9.2-4.2-14c0-8.2,4-16.3,11.4-21.2
	c10-6.6,23.2-5.4,31.7,2.9l15.3,14.8c17.5,17,31,37.6,39.4,60.4l8.3,22.3l85.3-56.4c13.6-9,32.1-5.1,40.8,8.9
	c8.4,13.4,4.1,31.2-9.1,40c-0.2,0.1-0.2,0.3-0.1,0.4s0.2,0.2,0.4,0.2c3.4-1.3,6.9-1.9,10.4-1.9c5.6,0,11.1,1.6,15.9,4.7
	c3.3,2.1,6.2,4.9,8.4,8.4c4.4,6.7,5.7,14.5,4.3,21.7c-2.3,11.4-10.6,17.3-12.2,18.4c-0.3,0.2-0.4,0.6-0.2,0.9l0,0
	c0.2,0.3,0.6,0.3,0.8,0.2c2.3-0.6,4.7-0.8,7.1-0.8c5.8,0,11.5,1.6,16.4,4.8c3.3,2.1,6.2,4.9,8.5,8.3c8.9,13.4,5.2,31.4-8.2,40.3
	c-0.3,0.2-0.7,0.4-1,0.7c-0.2,0.2-0.2,0.4-0.1,0.6l0.1,0.1c0.1,0.1,0.4,0.1,0.6,0c8.3-2.8,17.4-1.5,24.7,3.2
	c3.4,2.2,6.3,5.1,8.7,8.6C505.2,236.4,501.5,254.5,488.1,263.3z"/>
<path class="st3" d="M281.7,400l-54.1,35.8l-78.1,51.7C77.1,457.6,23.9,391,12.9,310.8l90.7-60l55.2-36.6c6.4-4.2,14.9-2.5,19.1,3.9
	l107.8,162.7C289.9,387.2,288.1,395.8,281.7,400z"/>
<path class="st4" d="M281.7,400l-54.1,35.8l-124.1-185l55.2-36.6c6.4-4.2,14.9-2.5,19.1,3.9l107.8,162.7
	C289.9,387.2,288.1,395.8,281.7,400z"/>
<g>
	<path class="st5" d="M438.4,107.8l-42.7,22.8c-6.1,3.2-13.6,1.5-17.6-4l33.7-21.8c0.1,0.1,0.2,0.2,0.4,0.2
		c3.4-1.3,6.9-1.9,10.4-1.9C428.2,103.1,433.7,104.7,438.4,107.8z"/>
	<path class="st5" d="M463.1,161.2l-41.8,22.3c-6.1,3.2-13.6,1.6-17.6-4l33.7-21.8l1.5-0.7c0.2,0.3,0.6,0.3,0.8,0.2
		c2.3-0.6,4.7-0.8,7.1-0.8C452.5,156.5,458.2,158.1,463.1,161.2z"/>
	<path class="st5" d="M487.6,214.4l-36.8,19.7c-6,3.2-13.6,1.5-17.6-4l29.2-18.9c0.2,0.1,0.4,0.1,0.6,0
		C471.3,208.4,480.3,209.7,487.6,214.4z"/>
</g>
</svg>
